<svg width="1279" height="491" viewBox="0 0 1279 491" fill="none" xmlns="http://www.w3.org/2000/svg">
<g clip-path="url(#clip0_1_678)">
<path d="M0 -35L134.916 67.9375" stroke="#C778DD" stroke-opacity="0.3" stroke-width="2"/>
<path d="M134.916 -35L269.831 67.9375" stroke="#C778DD" stroke-opacity="0.3" stroke-width="2"/>
<path d="M269.831 -35L404.747 67.9375" stroke="#C778DD" stroke-opacity="0.3" stroke-width="2"/>
<path d="M404.747 -35L539.662 67.9375" stroke="#C778DD" stroke-opacity="0.3" stroke-width="2"/>
<path d="M539.662 -35L674.578 67.9375" stroke="#C778DD" stroke-opacity="0.3" stroke-width="2"/>
<path d="M674.578 -35L809.494 67.9375" stroke="#C778DD" stroke-opacity="0.3" stroke-width="2"/>
<path d="M809.494 -35L944.409 67.9375" stroke="#C778DD" stroke-opacity="0.3" stroke-width="2"/>
<path d="M1079.32 -35L944.409 67.9375" stroke="#C778DD" stroke-opacity="0.3" stroke-width="2"/>
<path d="M1079.32 -35L1214.24 67.9375" stroke="#C778DD" stroke-opacity="0.3" stroke-width="2"/>
<path d="M1214.24 -35L1349.16 67.9375" stroke="#C778DD" stroke-opacity="0.3" stroke-width="2"/>
<path opacity="0.82" d="M0 67.9375L134.916 170.875" stroke="#C778DD" stroke-opacity="0.3" stroke-width="2"/>
<path opacity="0.82" d="M134.916 67.9375L269.831 170.875" stroke="#C778DD" stroke-opacity="0.3" stroke-width="2"/>
<path opacity="0.82" d="M269.831 67.9375L404.747 170.875" stroke="#C778DD" stroke-opacity="0.3" stroke-width="2"/>
<path opacity="0.82" d="M404.747 67.9375L539.662 170.875" stroke="#C778DD" stroke-opacity="0.3" stroke-width="2"/>
<path opacity="0.82" d="M539.662 67.9375L674.578 170.875" stroke="#C778DD" stroke-opacity="0.3" stroke-width="2"/>
<path opacity="0.82" d="M809.494 67.9375L674.578 170.875" stroke="#C778DD" stroke-opacity="0.3" stroke-width="2"/>
<path opacity="0.82" d="M809.494 67.9375L944.409 170.875" stroke="#C778DD" stroke-opacity="0.3" stroke-width="2"/>
<path opacity="0.82" d="M1079.32 67.9375L944.409 170.875" stroke="#C778DD" stroke-opacity="0.3" stroke-width="2"/>
<path opacity="0.82" d="M1214.24 67.9375L1079.32 170.875" stroke="#C778DD" stroke-opacity="0.3" stroke-width="2"/>
<path opacity="0.82" d="M1214.24 67.9375L1349.16 170.875" stroke="#C778DD" stroke-opacity="0.3" stroke-width="2"/>
<path opacity="0.64" d="M0 170.875L134.916 273.812" stroke="#C778DD" stroke-opacity="0.3" stroke-width="2"/>
<path opacity="0.64" d="M134.916 170.875L269.831 273.812" stroke="#C778DD" stroke-opacity="0.3" stroke-width="2"/>
<path opacity="0.64" d="M269.831 170.875L404.747 273.812" stroke="#C778DD" stroke-opacity="0.3" stroke-width="2"/>
<path opacity="0.64" d="M539.662 170.875L404.747 273.812" stroke="#C778DD" stroke-opacity="0.3" stroke-width="2"/>
<path opacity="0.64" d="M674.578 170.875L539.662 273.812" stroke="#C778DD" stroke-opacity="0.3" stroke-width="2"/>
<path opacity="0.64" d="M674.578 170.875L809.494 273.812" stroke="#C778DD" stroke-opacity="0.3" stroke-width="2"/>
<path opacity="0.64" d="M809.494 170.875L944.409 273.812" stroke="#C778DD" stroke-opacity="0.3" stroke-width="2"/>
<path opacity="0.64" d="M944.409 170.875L1079.32 273.812" stroke="#C778DD" stroke-opacity="0.3" stroke-width="2"/>
<path opacity="0.64" d="M1079.32 170.875L1214.24 273.812" stroke="#C778DD" stroke-opacity="0.3" stroke-width="2"/>
<path opacity="0.64" d="M1214.24 170.875L1349.16 273.812" stroke="#C778DD" stroke-opacity="0.3" stroke-width="2"/>
<path opacity="0.47" d="M0 273.812L134.916 376.75" stroke="#C778DD" stroke-opacity="0.3" stroke-width="2"/>
<path opacity="0.47" d="M134.916 273.812L269.831 376.75" stroke="#C778DD" stroke-opacity="0.3" stroke-width="2"/>
<path opacity="0.47" d="M269.831 273.812L404.747 376.75" stroke="#C778DD" stroke-opacity="0.3" stroke-width="2"/>
<path opacity="0.47" d="M539.662 273.812L404.747 376.75" stroke="#C778DD" stroke-opacity="0.3" stroke-width="2"/>
<path opacity="0.47" d="M539.662 273.812L674.578 376.75" stroke="#C778DD" stroke-opacity="0.3" stroke-width="2"/>
<path opacity="0.47" d="M674.578 273.812L809.494 376.75" stroke="#C778DD" stroke-opacity="0.3" stroke-width="2"/>
<path opacity="0.47" d="M944.409 273.812L809.494 376.75" stroke="#C778DD" stroke-opacity="0.3" stroke-width="2"/>
<path opacity="0.47" d="M944.409 273.812L1079.32 376.75" stroke="#C778DD" stroke-opacity="0.3" stroke-width="2"/>
<path opacity="0.47" d="M1214.24 273.812L1079.32 376.75" stroke="#C778DD" stroke-opacity="0.3" stroke-width="2"/>
<path opacity="0.47" d="M1214.24 273.812L1349.16 376.75" stroke="#C778DD" stroke-opacity="0.3" stroke-width="2"/>
<path opacity="0.29" d="M134.916 376.75L0 479.687" stroke="#C778DD" stroke-opacity="0.3" stroke-width="2"/>
<path opacity="0.29" d="M269.831 376.75L134.916 479.687" stroke="#C778DD" stroke-opacity="0.3" stroke-width="2"/>
<path opacity="0.29" d="M269.831 376.75L404.747 479.687" stroke="#C778DD" stroke-opacity="0.3" stroke-width="2"/>
<path opacity="0.29" d="M539.662 376.75L404.747 479.687" stroke="#C778DD" stroke-opacity="0.3" stroke-width="2"/>
<path opacity="0.29" d="M539.662 376.75L674.578 479.687" stroke="#C778DD" stroke-opacity="0.3" stroke-width="2"/>
<path opacity="0.29" d="M674.578 376.75L809.494 479.687" stroke="#C778DD" stroke-opacity="0.3" stroke-width="2"/>
<path opacity="0.29" d="M944.409 376.75L809.494 479.687" stroke="#C778DD" stroke-opacity="0.3" stroke-width="2"/>
<path opacity="0.29" d="M944.409 376.75L1079.32 479.687" stroke="#C778DD" stroke-opacity="0.3" stroke-width="2"/>
<path opacity="0.29" d="M1079.32 376.75L1214.24 479.687" stroke="#C778DD" stroke-opacity="0.3" stroke-width="2"/>
<path opacity="0.29" d="M1214.24 376.75L1349.16 479.687" stroke="#C778DD" stroke-opacity="0.3" stroke-width="2"/>
<path opacity="0.11" d="M0 479.688L134.916 582.625" stroke="#C778DD" stroke-opacity="0.3" stroke-width="2"/>
<path opacity="0.11" d="M134.916 479.688L269.831 582.625" stroke="#C778DD" stroke-opacity="0.3" stroke-width="2"/>
<path opacity="0.11" d="M404.747 479.688L269.831 582.625" stroke="#C778DD" stroke-opacity="0.3" stroke-width="2"/>
<path opacity="0.11" d="M539.662 479.688L404.747 582.625" stroke="#C778DD" stroke-opacity="0.3" stroke-width="2"/>
<path opacity="0.11" d="M539.662 479.688L674.578 582.625" stroke="#C778DD" stroke-opacity="0.3" stroke-width="2"/>
<path opacity="0.11" d="M809.494 479.688L674.578 582.625" stroke="#C778DD" stroke-opacity="0.3" stroke-width="2"/>
<path opacity="0.11" d="M809.494 479.688L944.409 582.625" stroke="#C778DD" stroke-opacity="0.3" stroke-width="2"/>
<path opacity="0.11" d="M944.409 479.688L1079.32 582.625" stroke="#C778DD" stroke-opacity="0.3" stroke-width="2"/>
<path opacity="0.11" d="M1214.24 479.688L1079.32 582.625" stroke="#C778DD" stroke-opacity="0.3" stroke-width="2"/>
<path opacity="0.11" d="M1214.24 479.688L1349.16 582.625" stroke="#C778DD" stroke-opacity="0.3" stroke-width="2"/>
</g>
<defs>
<clipPath id="clip0_1_678">
<rect width="1279" height="549" fill="white" transform="translate(0 -35)"/>
</clipPath>
</defs>
</svg>
